<svg width="806" height="79" fill="none" xmlns="http://www.w3.org/2000/svg"><path d="M36.744 78H.24c2.088-1.008 3.78-3.096 5.076-6.264 1.368-3.24 2.052-6.804 2.052-10.692V19.356c0-3.888-.684-7.416-2.052-10.584C4.02 5.532 2.328 3.408.24 2.4h36.504c10.512 0 19.044 3.492 25.596 10.476 6.552 6.984 9.828 16.092 9.828 27.324 0 11.232-3.276 20.34-9.828 27.324C55.788 74.508 47.256 78 36.744 78Zm-1.836-3.24c5.328 0 9.9-3.06 13.716-9.18 3.888-6.12 5.832-14.58 5.832-25.38 0-10.8-1.944-19.26-5.832-25.38-3.816-6.12-8.388-9.18-13.716-9.18-3.312 0-6.12 1.224-8.424 3.672-2.304 2.448-3.456 5.76-3.456 9.936v41.904c0 4.176 1.152 7.488 3.456 9.936 2.304 2.448 5.112 3.672 8.424 3.672ZM106.633 78.756c-7.632 0-14.004-2.52-19.116-7.56-5.04-5.112-7.56-11.592-7.56-19.44 0-7.848 2.484-14.292 7.452-19.332 5.04-5.04 11.268-7.56 18.684-7.56 6.624 0 11.736 1.548 15.336 4.644 3.6 3.096 5.4 6.408 5.4 9.936 0 2.952-.936 5.436-2.808 7.452-1.872 2.016-4.14 3.6-6.804 4.752a376.877 376.877 0 0 0-7.992 3.348c-2.664 1.08-4.932 2.592-6.804 4.536-1.872 1.872-2.808 4.248-2.808 7.128 0 2.736.792 4.896 2.376 6.48 1.656 1.512 3.78 2.268 6.372 2.268 3.24 0 5.868-1.296 7.884-3.888 2.016-2.592 3.348-5.364 3.996-8.316a6.03 6.03 0 0 1 3.348 1.728c1.008.936 1.512 2.16 1.512 3.672 0 2.376-1.692 4.68-5.076 6.912-3.312 2.16-7.776 3.24-13.392 3.24Zm-9.72-15.228c.288-2.016 1.044-3.96 2.268-5.832a36.707 36.707 0 0 1 4.212-5.076 259.973 259.973 0 0 0 4.428-4.536 22.448 22.448 0 0 0 3.672-5.184 13.192 13.192 0 0 0 1.512-6.156c0-2.808-.576-4.968-1.728-6.48-1.152-1.512-2.736-2.268-4.752-2.268-3.312 0-6.012 2.196-8.1 6.588-2.088 4.392-3.132 10.116-3.132 17.172 0 4.248.54 8.172 1.62 11.772ZM154.977 78h-23.976c3.096-1.584 4.644-6.876 4.644-15.876V23.568c0-9.072-1.548-14.328-4.644-15.768 6.984-1.368 13.392-3.816 19.224-7.344v61.668c0 9 1.584 14.292 4.752 15.876ZM177.724 16.008c-1.584 1.512-3.744 2.268-6.48 2.268s-4.932-.756-6.588-2.268c-1.584-1.512-2.376-3.528-2.376-6.048s.792-4.536 2.376-6.048c1.656-1.512 3.852-2.268 6.588-2.268s4.896.756 6.48 2.268c1.656 1.512 2.484 3.528 2.484 6.048s-.828 4.536-2.484 6.048ZM184.096 78H160.12c3.096-1.584 4.644-6.876 4.644-15.876V47.436c0-9.144-1.548-14.436-4.644-15.876 6.984-1.368 13.392-3.816 19.224-7.344v37.908c0 9 1.584 14.292 4.752 15.876ZM214.527 78.756c-7.632 0-14.004-2.52-19.116-7.56-5.04-5.112-7.56-11.592-7.56-19.44 0-7.848 2.484-14.292 7.452-19.332 5.04-5.04 11.268-7.56 18.684-7.56 5.976 0 10.908 1.296 14.796 3.888 3.888 2.52 5.832 5.652 5.832 9.396 0 2.016-.756 3.744-2.268 5.184-1.512 1.368-3.456 2.052-5.832 2.052-3.744 0-6.516-1.476-8.316-4.428 2.088-1.656 3.132-3.78 3.132-6.372 0-1.944-.612-3.528-1.836-4.752-1.152-1.224-2.628-1.836-4.428-1.836-3.456 0-6.3 2.196-8.532 6.588-2.232 4.392-3.348 10.116-3.348 17.172 0 6.696 1.188 12.312 3.564 16.848 2.376 4.536 5.544 6.804 9.504 6.804 3.24 0 5.868-1.296 7.884-3.888 2.016-2.592 3.348-5.364 3.996-8.316a6.03 6.03 0 0 1 3.348 1.728c1.008.936 1.512 2.16 1.512 3.672 0 2.376-1.692 4.68-5.076 6.912-3.312 2.16-7.776 3.24-13.392 3.24ZM258.092 16.008c-1.584 1.512-3.744 2.268-6.48 2.268s-4.932-.756-6.588-2.268c-1.584-1.512-2.376-3.528-2.376-6.048s.792-4.536 2.376-6.048c1.656-1.512 3.852-2.268 6.588-2.268s4.896.756 6.48 2.268c1.656 1.512 2.484 3.528 2.484 6.048s-.828 4.536-2.484 6.048ZM264.464 78h-23.976c3.096-1.584 4.644-6.876 4.644-15.876V47.436c0-9.144-1.548-14.436-4.644-15.876 6.984-1.368 13.392-3.816 19.224-7.344v37.908c0 9 1.584 14.292 4.752 15.876ZM295.434 78.756c-7.92 0-14.436-2.52-19.548-7.56-5.112-5.04-7.668-11.52-7.668-19.44 0-7.92 2.556-14.364 7.668-19.332 5.112-5.04 11.628-7.56 19.548-7.56 7.992 0 14.544 2.52 19.656 7.56 5.112 4.968 7.668 11.412 7.668 19.332s-2.556 14.4-7.668 19.44c-5.112 5.04-11.664 7.56-19.656 7.56Zm0-3.348c3.672 0 6.516-2.124 8.532-6.372 2.016-4.248 3.024-10.008 3.024-17.28 0-7.272-1.008-13.032-3.024-17.28-2.016-4.32-4.86-6.48-8.532-6.48-3.6 0-6.408 2.16-8.424 6.48-2.016 4.248-3.024 10.008-3.024 17.28 0 7.272 1.008 13.032 3.024 17.28 2.016 4.248 4.824 6.372 8.424 6.372ZM347.899 78.756c-5.328 0-9.396-2.016-12.204-6.048s-4.212-9.144-4.212-15.336v-9.936c0-9.144-1.548-14.436-4.644-15.876 6.984-1.368 13.392-3.816 19.224-7.344v35.208c0 3.6.576 6.552 1.728 8.856 1.152 2.232 2.844 3.348 5.076 3.348 3.816 0 6.84-2.736 9.072-8.208 2.304-5.544 3.456-11.772 3.456-18.684 0-2.664-.36-5.328-1.08-7.992-.72-2.664-1.908-4.392-3.564-5.184a61.123 61.123 0 0 0 19.224-7.344v37.908c0 9 1.548 14.292 4.644 15.876h-19.224V64.716c-1.584 4.176-3.888 7.56-6.912 10.152-3.024 2.592-6.552 3.888-10.584 3.888ZM412.079 78.756c-7.128 0-12.6-1.224-16.416-3.672-3.744-2.448-5.616-5.292-5.616-8.532 0-2.016.684-3.636 2.052-4.86 1.44-1.224 2.844-1.944 4.212-2.16l2.16-.324c-.072.36-.108 1.008-.108 1.944 0 1.584.18 3.132.54 4.644.432 1.512 1.116 3.024 2.052 4.536 1.008 1.512 2.448 2.736 4.32 3.672 1.944.936 4.248 1.404 6.912 1.404 2.736 0 5.076-.72 7.02-2.16 1.944-1.44 2.916-3.528 2.916-6.264 0-2.376-1.044-4.284-3.132-5.724-2.088-1.512-4.644-2.7-7.668-3.564-2.952-.864-5.94-1.8-8.964-2.808-3.024-1.008-5.58-2.664-7.668-4.968-2.088-2.376-3.132-5.364-3.132-8.964 0-4.968 2.052-8.892 6.156-11.772 4.104-2.88 8.748-4.32 13.932-4.32 6.192 0 10.944.936 14.256 2.808 3.312 1.8 4.968 3.96 4.968 6.48 0 1.728-.648 3.096-1.944 4.104-1.224 1.008-2.88 1.512-4.968 1.512a11.88 11.88 0 0 1-3.564-.54c-1.08-.432-1.908-.828-2.484-1.188l-.756-.648c.576-.864.864-1.872.864-3.024 0-1.8-.756-3.312-2.268-4.536-1.44-1.224-3.348-1.836-5.724-1.836-2.304 0-4.248.648-5.832 1.944-1.512 1.296-2.268 3.024-2.268 5.184 0 2.232 1.116 4.032 3.348 5.4 2.304 1.368 5.04 2.484 8.208 3.348 3.24.792 6.48 1.728 9.72 2.808 3.24 1.08 5.976 2.88 8.208 5.4 2.304 2.52 3.456 5.724 3.456 9.612 0 5.76-2.232 10.044-6.696 12.852-4.464 2.808-9.828 4.212-16.092 4.212ZM490.324 78H460.3c2.088-1.008 3.816-3.096 5.184-6.264 1.368-3.168 2.052-6.732 2.052-10.692V19.356c0-3.888-.72-7.416-2.16-10.584-1.44-3.168-3.204-5.292-5.292-6.372h34.56c9.72 0 17.208 1.512 22.464 4.536 5.256 3.024 7.884 7.38 7.884 13.068 0 2.736-.504 5.148-1.512 7.236-.936 2.088-2.628 3.96-5.076 5.616-2.448 1.584-4.428 2.736-5.94 3.456-1.512.72-4.104 1.8-7.776 3.24-.576.216-1.008.396-1.296.54l11.664 20.952c5.112 9.288 10.224 14.94 15.336 16.956h-32.508c1.656-1.152 2.484-3.276 2.484-6.372 0-3.24-1.008-6.768-3.024-10.584L490 47.004c-4.608 3.672-6.912 8.352-6.912 14.04 0 3.96.684 7.524 2.052 10.692 1.368 3.168 3.096 5.256 5.184 6.264Zm-7.236-58.752v29.808c1.08-2.16 2.664-4.176 4.752-6.048 2.16-1.872 4.284-3.492 6.372-4.86a99.185 99.185 0 0 0 6.264-4.536 19.379 19.379 0 0 0 4.86-5.94c1.296-2.376 1.944-5.112 1.944-8.208 0-4.104-1.188-7.416-3.564-9.936-2.376-2.592-5.436-3.888-9.18-3.888-3.6 0-6.408 1.188-8.424 3.564-2.016 2.376-3.024 5.724-3.024 10.044ZM555.297 78.756c-7.632 0-14.004-2.52-19.116-7.56-5.04-5.112-7.56-11.592-7.56-19.44 0-7.848 2.484-14.292 7.452-19.332 5.04-5.04 11.268-7.56 18.684-7.56 6.624 0 11.736 1.548 15.336 4.644 3.6 3.096 5.4 6.408 5.4 9.936 0 2.952-.936 5.436-2.808 7.452-1.872 2.016-4.14 3.6-6.804 4.752a376.877 376.877 0 0 0-7.992 3.348c-2.664 1.08-4.932 2.592-6.804 4.536-1.872 1.872-2.808 4.248-2.808 7.128 0 2.736.792 4.896 2.376 6.48 1.656 1.512 3.78 2.268 6.372 2.268 3.24 0 5.868-1.296 7.884-3.888 2.016-2.592 3.348-5.364 3.996-8.316a6.03 6.03 0 0 1 3.348 1.728c1.008.936 1.512 2.16 1.512 3.672 0 2.376-1.692 4.68-5.076 6.912-3.312 2.16-7.776 3.24-13.392 3.24Zm-9.72-15.228c.288-2.016 1.044-3.96 2.268-5.832a36.677 36.677 0 0 1 4.212-5.076 259.973 259.973 0 0 0 4.428-4.536 22.448 22.448 0 0 0 3.672-5.184 13.192 13.192 0 0 0 1.512-6.156c0-2.808-.576-4.968-1.728-6.48-1.152-1.512-2.736-2.268-4.752-2.268-3.312 0-6.012 2.196-8.1 6.588-2.088 4.392-3.132 10.116-3.132 17.172 0 4.248.54 8.172 1.62 11.772ZM615.134 78h-21.168c1.224-.72 1.836-2.16 1.836-4.32 0-2.52-.864-6.264-2.592-11.232l-7.02-20.196c-3.168-8.856-6.552-14.004-10.152-15.444h25.164c-1.296.72-1.944 2.232-1.944 4.536 0 2.232.792 5.868 2.376 10.908l8.424 25.272 4.428-13.824c2.088-6.48 3.132-12.06 3.132-16.74 0-4.896-1.26-8.28-3.78-10.152h20.412c-4.752 2.088-9.936 11.052-15.552 26.892l-3.132 8.748c-1.584 4.752-2.376 8.352-2.376 10.8 0 2.448.648 4.032 1.944 4.752ZM657.918 78.756c-7.632 0-14.004-2.52-19.116-7.56-5.04-5.112-7.56-11.592-7.56-19.44 0-7.848 2.484-14.292 7.452-19.332 5.04-5.04 11.268-7.56 18.684-7.56 6.624 0 11.736 1.548 15.336 4.644 3.6 3.096 5.4 6.408 5.4 9.936 0 2.952-.936 5.436-2.808 7.452-1.872 2.016-4.14 3.6-6.804 4.752a376.877 376.877 0 0 0-7.992 3.348c-2.664 1.08-4.932 2.592-6.804 4.536-1.872 1.872-2.808 4.248-2.808 7.128 0 2.736.792 4.896 2.376 6.48 1.656 1.512 3.78 2.268 6.372 2.268 3.24 0 5.868-1.296 7.884-3.888 2.016-2.592 3.348-5.364 3.996-8.316a6.03 6.03 0 0 1 3.348 1.728c1.008.936 1.512 2.16 1.512 3.672 0 2.376-1.692 4.68-5.076 6.912-3.312 2.16-7.776 3.24-13.392 3.24Zm-9.72-15.228c.288-2.016 1.044-3.96 2.268-5.832a36.677 36.677 0 0 1 4.212-5.076 259.973 259.973 0 0 0 4.428-4.536 22.448 22.448 0 0 0 3.672-5.184 13.192 13.192 0 0 0 1.512-6.156c0-2.808-.576-4.968-1.728-6.48-1.152-1.512-2.736-2.268-4.752-2.268-3.312 0-6.012 2.196-8.1 6.588-2.088 4.392-3.132 10.116-3.132 17.172 0 4.248.54 8.172 1.62 11.772ZM707.749 78h-23.976c3.096-1.584 4.644-6.876 4.644-15.876V47.436c0-9.144-1.548-14.436-4.644-15.876 6.984-1.368 13.392-3.816 19.224-7.344V39.12c1.152-4.104 3.132-7.488 5.94-10.152 2.88-2.736 6.048-4.104 9.504-4.104 3.312 0 5.868.972 7.668 2.916 1.872 1.944 2.808 4.212 2.808 6.804 0 2.304-.72 4.248-2.16 5.832-1.44 1.584-3.456 2.376-6.048 2.376-.864 0-1.764-.108-2.7-.324a7.146 7.146 0 0 0 .756-3.24 6.438 6.438 0 0 0-1.512-4.212c-1.008-1.224-2.412-1.836-4.212-1.836-6.84 0-10.26 9.648-10.26 28.944 0 8.928 1.656 14.22 4.968 15.876ZM748.205 16.008c-1.584 1.512-3.744 2.268-6.48 2.268s-4.932-.756-6.588-2.268c-1.584-1.512-2.376-3.528-2.376-6.048s.792-4.536 2.376-6.048c1.656-1.512 3.852-2.268 6.588-2.268s4.896.756 6.48 2.268c1.656 1.512 2.484 3.528 2.484 6.048s-.828 4.536-2.484 6.048ZM754.577 78h-23.976c3.096-1.584 4.644-6.876 4.644-15.876V47.436c0-9.144-1.548-14.436-4.644-15.876 6.984-1.368 13.392-3.816 19.224-7.344v37.908c0 9 1.584 14.292 4.752 15.876ZM785.008 78.756c-7.632 0-14.004-2.52-19.116-7.56-5.04-5.112-7.56-11.592-7.56-19.44 0-7.848 2.484-14.292 7.452-19.332 5.04-5.04 11.268-7.56 18.684-7.56 6.624 0 11.736 1.548 15.336 4.644 3.6 3.096 5.4 6.408 5.4 9.936 0 2.952-.936 5.436-2.808 7.452-1.872 2.016-4.14 3.6-6.804 4.752a376.877 376.877 0 0 0-7.992 3.348c-2.664 1.08-4.932 2.592-6.804 4.536-1.872 1.872-2.808 4.248-2.808 7.128 0 2.736.792 4.896 2.376 6.48 1.656 1.512 3.78 2.268 6.372 2.268 3.24 0 5.868-1.296 7.884-3.888 2.016-2.592 3.348-5.364 3.996-8.316a6.03 6.03 0 0 1 3.348 1.728c1.008.936 1.512 2.16 1.512 3.672 0 2.376-1.692 4.68-5.076 6.912-3.312 2.16-7.776 3.24-13.392 3.24Zm-9.72-15.228c.288-2.016 1.044-3.96 2.268-5.832a36.677 36.677 0 0 1 4.212-5.076 259.973 259.973 0 0 0 4.428-4.536 22.448 22.448 0 0 0 3.672-5.184 13.192 13.192 0 0 0 1.512-6.156c0-2.808-.576-4.968-1.728-6.48-1.152-1.512-2.736-2.268-4.752-2.268-3.312 0-6.012 2.196-8.1 6.588-2.088 4.392-3.132 10.116-3.132 17.172 0 4.248.54 8.172 1.62 11.772Z" fill="#F7EBC1"/></svg>